<svg version="1.1" xmlns="http://www.w3.org/2000/svg">
    <symbol id="load" viewBox="0 0 36 36">
        <circle fill="#022db9" fill-opacity="0.4" cx="18" cy="4" r="3"/>
        <circle fill="#022db9" fill-opacity="0.55" cx="27.9" cy="8.1" r="3"/>
        <circle fill="#022db9" fill-opacity="0.7" cx="32" cy="18" r="3"/>
        <circle fill="#022db9" fill-opacity="0.85" cx="27.9" cy="27.9" r="3"/>
        <circle fill="#022db9" fill-opacity="0.95" cx="18" cy="32" r="3"/>
        <circle fill="#022db9" fill-opacity="1" cx="8.1" cy="27.9" r="3"/>
        <circle fill="#022db9" fill-opacity="0" cx="4" cy="18" r="3"/>
    </symbol>
    <symbol id="close" fill="none" viewBox="0 0 14 14">
        <path d="M1 1 12 12M1 13 13 1" stroke="#022db9" stroke-width="2"/>
    </symbol> 
    <symbol id="arrowLeft" fill="none" viewBox="0 0 7 17">
        <path d="M6 6L2 11L6 16" stroke="#022db9" stroke-width="2"/>
    </symbol>
    <symbol id="arrowRight" fill="none" viewBox="0 0 7 17">
        <path d="M1 6L5 11L1 16" stroke="#022db9" stroke-width="2"/>
    </symbol>
    <symbol id="delete" viewBox="0 0 64 64">
        <path fill="#222222" d="M52,8H42V4a4,4,0,0,0-4-4H26a4,4,0,0,0-4,4V8H12a6,6,0,0,0-6,6v6a2,2,0,0,0,2,2h2V56a8,8,0,0,0,8,8H46a8,8,0,0,0,8-8V22h2a2,2,0,0,0,2-2V14A6,6,0,0,0,52,8ZM26,4H38V8H26ZM50,56a4,4,0,0,1-4,4H18a4,4,0,0,1-4-4V22H50Zm4-38H10V14a2,2,0,0,1,2-2H52a2,2,0,0,1,2,2Z"/>
        <path fill="#222222" d="M21,56a2,2,0,0,0,2-2V30a2,2,0,0,0-4,0V54A2,2,0,0,0,21,56Z"/>
        <path fill="#222222" d="M32,56a2,2,0,0,0,2-2V30a2,2,0,0,0-4,0V54A2,2,0,0,0,32,56Z"/>
        <path fill="#222222" d="M43,56a2,2,0,0,0,2-2V30a2,2,0,0,0-4,0V54A2,2,0,0,0,43,56Z"/>
    </symbol>
    <symbol id="user" fill="#222222" viewBox="0 0 24 24">
        <ellipse cx="12" cy="8" rx="5" ry="6"/>
        <path d="M21.8,19.1c-0.9-1.8-2.6-3.3-4.8-4.2c-0.6-0.2-1.3-0.2-1.8,0.1c-1,0.6-2,0.9-3.2,0.9s-2.2-0.3-3.2-0.9    C8.3,14.8,7.6,14.7,7,15c-2.2,0.9-3.9,2.4-4.8,4.2C1.5,20.5,2.6,22,4.1,22h15.8C21.4,22,22.5,20.5,21.8,19.1z"/>
    </symbol>
    <symbol id="phone" fill="#222222" viewBox="0 0 512 512">
        <path d="M511.2 387l-23.25 100.8c-3.266 14.25-15.79 24.22-30.46 24.22C205.2 512 0 306.8 0 54.5c0-14.66 9.969-27.2 24.22-30.45l100.8-23.25C139.7-2.602 154.7 5.018 160.8 18.92l46.52 108.5c5.438 12.78 1.77 27.67-8.98 36.45L144.5 207.1c33.98 69.22 90.26 125.5 159.5 159.5l44.08-53.8c8.688-10.78 23.69-14.51 36.47-8.975l108.5 46.51C506.1 357.2 514.6 372.4 511.2 387z"/>
    </symbol>
    <symbol id="edit" fill="#222222" viewBox="0 0 48 48">
        <path clip-rule="evenodd" d="M47,5.025c0.006,0.258-0.085,0.518-0.281,0.715  c-0.043,0.042-0.096,0.062-0.144,0.095l-2.69,2.69l0.69,0.69c0.048,0.033,0.102,0.053,0.144,0.095  c0.196,0.197,0.287,0.457,0.281,0.714c0.006,0.258-0.085,0.518-0.281,0.715c-0.042,0.042-0.096,0.062-0.144,0.095L12.861,42.55  c-0.111,0.213-0.287,0.392-0.523,0.481l-9.8,3.844c-0.058,0.031-0.117,0.051-0.181,0.071l-0.012,0.005  c-0.008,0.003-0.017,0.001-0.024,0.004C2.228,46.98,2.135,47.001,2.035,47c-0.098,0.003-0.189-0.015-0.283-0.041  c-0.02-0.006-0.039-0.002-0.06-0.009c-0.008-0.003-0.013-0.01-0.021-0.013c-0.088-0.033-0.164-0.083-0.24-0.141  c-0.039-0.028-0.08-0.053-0.113-0.086s-0.058-0.074-0.086-0.113c-0.058-0.075-0.107-0.152-0.141-0.24  c-0.004-0.008-0.01-0.013-0.013-0.021c-0.007-0.02-0.003-0.04-0.009-0.061c-0.025-0.092-0.043-0.184-0.041-0.281  c0-0.1,0.02-0.193,0.045-0.287c0.004-0.008,0.001-0.016,0.004-0.023l0.006-0.013c0.02-0.063,0.039-0.123,0.07-0.181l3.844-9.8  c0.09-0.236,0.269-0.412,0.482-0.523L33.242,7.406c-0.264-0.834-1.035-1.443-1.957-1.443c-0.609,0-1.151,0.269-1.528,0.689  L29.754,6.65l-3.25,3.25l0.003,0.003L19.67,16.74c-0.381,0.381-0.999,0.381-1.381,0c-0.381-0.381-0.381-1,0-1.381L28.338,5.311  c0.017-0.017,0.038-0.022,0.056-0.037c0.729-0.766,1.751-1.249,2.892-1.249c1.45,0,2.699,0.784,3.396,1.942l2.514-2.513  c0.033-0.047,0.053-0.101,0.095-0.143c0.197-0.197,0.457-0.288,0.715-0.281c0.258-0.007,0.518,0.084,0.715,0.281  c0.042,0.042,0.062,0.096,0.095,0.143l0.69,0.69l2.69-2.69c0.033-0.047,0.053-0.101,0.095-0.143  c0.197-0.197,0.457-0.288,0.715-0.281c0.258-0.007,0.518,0.084,0.715,0.281c0.042,0.042,0.062,0.096,0.095,0.143l2.762,2.762  c0.048,0.033,0.101,0.053,0.144,0.095C46.915,4.508,47.006,4.768,47,5.025z M3.875,44.155l6.376-2.502l-3.875-3.875L3.875,44.155z   M38.004,5.406L7.385,36.025l4.619,4.619l30.619-30.619L38.004,5.406z M43.004,3.406l-2.119,2.119l1.619,1.619l2.119-2.119  L43.004,3.406z" fill-rule="evenodd"/>
    </symbol>
    <symbol id="ok" viewBox="0 0 128 128">
        <path fill="#00ff00" d="M116.158,29.336l-4.975-4.975c-3.469-3.469-9.088-3.478-12.549-0.019L48.103,74.875L29.364,56.136  c-3.459-3.46-9.078-3.45-12.549,0.021l-4.974,4.974c-3.47,3.47-3.48,9.089-0.02,12.549L41.8,103.657  c1.741,1.741,4.026,2.602,6.31,2.588c2.279,0.011,4.559-0.852,6.297-2.59l61.771-61.771  C119.637,38.424,119.631,32.807,116.158,29.336z"/>
    </symbol>
    <symbol id="cancel"  viewBox="0 0 128 128">
        <path fill="#ff0000" d="M81.646,64l22.248-22.249c3.48-3.48,3.474-9.131-0.019-12.623l-5.006-5.005  c-3.489-3.49-9.142-3.499-12.622-0.019L64,46.354L41.753,24.106c-3.484-3.483-9.133-3.472-12.624,0.018l-5.005,5.005  c-3.491,3.492-3.501,9.14-0.018,12.623L46.354,64L24.108,86.246c-3.483,3.484-3.472,9.133,0.018,12.623l5.005,5.006  c3.492,3.492,9.14,3.502,12.623,0.018L64,81.647l22.247,22.246c3.48,3.481,9.131,3.475,12.622-0.019l5.006-5.006  c3.489-3.489,3.498-9.142,0.019-12.622L81.646,64z"/>
    </symbol>
</svg>